<?xml version="1.0" encoding="utf-8"?>
<!-- Generator: Adobe Illustrator 18.1.1, SVG Export Plug-In . SVG Version: 6.00 Build 0)  -->
<svg version="1.1" id="Layer_1" xmlns="http://www.w3.org/2000/svg" xmlns:xlink="http://www.w3.org/1999/xlink" x="0px" y="0px"
	 viewBox="0 0 612 792" enable-background="new 0 0 612 792" xml:space="preserve">
<g>
	<g>
		<path fill="#FFFFFF" d="M380.1,438c-48.9,0-97.9,0-146.8,0c0-27.9,0-55.8,0-83.7c48.9,0,97.9,0,146.8,0
			C380.1,382.2,380.1,410.1,380.1,438z M336,364.7c0-0.1,0.1-0.1,0.1-0.2c-0.2-0.2-0.5-0.4-0.7-0.5c-5.2-3-10.4-6-15.5-9
			c-0.6-0.4-1-0.3-1.6,0.1c-10.8,6.3-21.6,12.5-32.4,18.8c-0.7,0.4-1.2,0.5-1.9,0c-1.8-1.1-3.7-2.1-5.5-3.2c-1.1-0.7-2.3-1-3.6-1
			c-0.6,0-1.3-0.2-1.9-0.5c-2.7-1.5-5.4-3.1-8.1-4.6c-0.5-0.3-1.2-0.5-1.8-0.5c-4.2,0-8.5,0-12.7,0c-0.8,0-1.2,0.3-1.7,0.8
			c-2.9,3.3-5.8,6.6-8.6,10c-1.7,2-3.4,4-5.2,6.1c3.6,2.1,7.1,4.2,10.6,6.2c-0.4,0.5-0.7,0.9-1,1.4c10.2,5.9,20.3,11.7,30.5,17.7
			c-3.7,2.1-7.1,4.1-10.7,6.2c0.2,0.2,0.2,0.2,0.3,0.3c5.4,3.1,10.7,6.2,16.1,9.3c0.3,0.2,0.9,0.1,1.3-0.1c3.1-1.7,6.2-3.5,9.2-5.3
			c0.6-0.3,1-0.4,1.6,0c3.7,2.2,7.5,4.3,11.3,6.6c0.9,0.5,1.5,0.5,2.3,0c4.7-2.8,9.5-5.6,14.3-8.3c10.7-6.1,21.3-12.3,32-18.4
			c0.7-0.4,1.3-0.8,2-1.2c0,3.1,0.1,6-0.1,8.9c0,0.8,0.3,0.9,0.7,0.9c0.3,0,0.7-0.5,0.8-0.8c0.3-0.7,0.4-1.5,0.5-1.9
			c0.8-0.2,1.5-0.2,2-0.5c5.5-3.1,11-6.3,16.5-9.5c1.5-0.8,2.9-1.7,4.5-2.6c-1.1-0.6-2-1.1-2.9-1.6c0,0.1-0.1,0.2-0.1,0.3
			c0.3,0.2,0.6,0.3,0.8,0.6c0.1,0.2,0.2,0.6,0.1,0.8c-0.7,0.9-1.8,1-2.8,0.4c-15.8-9.2-31.7-18.3-47.5-27.5c-3-1.8-6.1-3.5-9.1-5.3
			c-0.3-0.2-0.7-0.8-0.6-1c0.4-0.8,1.9-1,2.7-0.6c3.2,1.8,6.4,3.7,9.5,5.5C331.8,362.2,333.9,363.5,336,364.7z M343.1,367.8
			c0.4,0.4,0.6,0.8,0.9,0.9c1.1,0.7,2.2,1.2,3.3,1.9c0.8,0.5,1.4,0.2,1.7-0.4c0.4-0.6,0.4-1.3-0.4-1.8c-1-0.6-2-1.2-3.1-1.8
			c-0.4-0.2-1-0.5-1.2-0.4C343.8,366.7,343.5,367.2,343.1,367.8z M364,379.9c0.4,0.5,0.6,0.8,0.9,1c1.1,0.7,2.2,1.2,3.3,1.9
			c0.8,0.5,1.4,0.2,1.8-0.4c0.4-0.6,0.4-1.3-0.5-1.8c-1-0.6-2-1.2-3.1-1.8c-0.4-0.2-1-0.5-1.2-0.3
			C364.7,378.8,364.4,379.3,364,379.9z M336.4,364c0.4,0.4,0.6,0.8,0.9,1c1,0.6,2.2,1.2,3.2,1.9c0.8,0.5,1.4,0.3,1.8-0.3
			c0.5-0.7,0.4-1.5-0.6-1.9c-1-0.5-2-1.2-3-1.7c-0.4-0.2-1-0.5-1.2-0.4C337.1,362.8,336.9,363.4,336.4,364z M376.8,385.2
			c-0.1-0.1-0.3-0.5-0.6-0.7c-1.1-0.7-2.2-1.2-3.2-2c-0.8-0.7-1.4-0.2-1.8,0.3c-0.4,0.6-0.6,1.4,0.4,1.9c1.1,0.6,2.2,1.3,3.3,1.9
			C375.8,387.1,376.7,386.6,376.8,385.2z M247.7,399c-0.1-0.3-0.1-0.9-0.3-1.4c-0.1-0.3-0.4-0.6-0.7-0.7c-0.2,0-0.5,0.3-0.6,0.6
			c-0.2,0.4-0.3,0.8-0.3,1.2c0,0.8,0.4,1.6,0.2,2.3c-0.2,0.8,0.3,0.9,0.6,0.8c0.3,0,0.9-0.3,0.9-0.6
			C247.6,400.7,247.6,399.9,247.7,399z M277.1,432c0,0.1,0,0.3-0.1,0.4c0.5-0.1,1.4-0.2,1.4-0.4c0.1-1.4,0.2-2.8,0-4.2
			c-0.1-0.7-0.9-0.7-1.2,0c-0.3,0.7-0.3,1.6-0.4,2.4C276.9,430.9,277,431.4,277.1,432z M307,430c0-0.1,0-0.5-0.1-0.8
			c-0.3-0.5-0.6-0.9-0.9-1.3c-0.3,0.5-0.9,0.9-0.9,1.4c-0.1,1,0,2.1,0.1,3.2c0,0.2,0.5,0.4,0.7,0.4c0.3,0,0.8-0.3,0.8-0.5
			C306.9,431.7,306.9,430.9,307,430z M263.6,424.4c0.6,0.4,1.3,0.6,1.5-0.3c0.2-0.8,0.3-1.7,0.2-2.5c-0.1-0.7-0.7-2-0.9-1.9
			c-1,0.1-1,1.1-1,2C263.5,422.5,263.6,423.4,263.6,424.4z M235.8,392.7c0.5-0.1,1.4-0.2,1.4-0.4c0.1-1.4,0.1-2.8,0-4.2
			c0-0.2-0.4-0.5-0.6-0.5c-0.3,0.1-0.6,0.3-0.7,0.6c-0.1,1-0.2,1.9-0.2,2.9C235.7,391.6,235.8,391.9,235.8,392.7z M349.2,371.9
			c-0.1,0.1-0.1,0.2-0.2,0.3c4.9,2.8,9.7,5.6,14.6,8.4c0.1-0.1,0.1-0.2,0.2-0.3C358.9,377.5,354.1,374.7,349.2,371.9z M272.8,425.8
			c1.2,0.1,1.8,1.7,3,0.4C274.9,426,274.3,424.5,272.8,425.8z"/>
		<path d="M336,364.7c-2.1-1.2-4.3-2.4-6.4-3.7c-3.2-1.8-6.4-3.7-9.5-5.5c-0.8-0.4-2.3-0.2-2.7,0.6c-0.1,0.2,0.3,0.8,0.6,1
			c3,1.8,6.1,3.6,9.1,5.3c15.8,9.2,31.7,18.3,47.5,27.5c1,0.6,2.1,0.4,2.8-0.4c0.1-0.2,0.1-0.6-0.1-0.8c-0.2-0.2-0.5-0.4-0.8-0.6
			c0-0.1,0.1-0.2,0.1-0.3c0.9,0.5,1.8,1,2.9,1.6c-1.6,0.9-3.1,1.8-4.5,2.6c-5.5,3.2-11,6.4-16.5,9.5c-0.5,0.3-1.2,0.3-2,0.5
			c-0.1,0.4-0.2,1.2-0.5,1.9c-0.1,0.3-0.5,0.8-0.8,0.8c-0.4,0-0.7-0.1-0.7-0.9c0.1-2.9,0.1-5.8,0.1-8.9c-0.7,0.4-1.4,0.8-2,1.2
			c-10.7,6.1-21.3,12.3-32,18.4c-4.8,2.8-9.5,5.5-14.3,8.3c-0.9,0.5-1.5,0.5-2.3,0c-3.7-2.2-7.5-4.3-11.3-6.6c-0.6-0.4-1-0.3-1.6,0
			c-3.1,1.8-6.1,3.6-9.2,5.3c-0.3,0.2-0.9,0.3-1.3,0.1c-5.4-3.1-10.7-6.2-16.1-9.3c-0.1,0-0.1-0.1-0.3-0.3c3.5-2,7-4.1,10.7-6.2
			c-10.3-5.9-20.4-11.8-30.5-17.7c0.4-0.5,0.7-0.9,1-1.4c-3.5-2.1-7-4.1-10.6-6.2c1.8-2.1,3.5-4.1,5.2-6.1c2.9-3.3,5.8-6.6,8.6-10
			c0.5-0.6,1-0.8,1.7-0.8c4.2,0,8.5,0,12.7,0c0.6,0,1.3,0.2,1.8,0.5c2.7,1.5,5.4,3.1,8.1,4.6c0.6,0.3,1.3,0.5,1.9,0.5
			c1.3-0.1,2.5,0.3,3.6,1c1.8,1.1,3.7,2.1,5.5,3.2c0.7,0.4,1.2,0.4,1.9,0c10.8-6.3,21.6-12.5,32.4-18.8c0.6-0.3,1-0.4,1.6-0.1
			c5.2,3,10.4,6,15.5,9c0.2,0.1,0.5,0.3,0.7,0.5C336.1,364.6,336.1,364.6,336,364.7z M267.9,386.4c2.5,1.5,5,2.9,7.4,4.3
			c1.5-1.8,3-3.4,4.5-5.2c-2.3-1.3-4.6-2.7-6.9-3.9c-0.2-0.1-0.8,0.1-1,0.3C270.6,383.3,269.3,384.8,267.9,386.4z M263.5,383.8
			c1.5-1.8,3-3.5,4.5-5.2c-2.5-1.5-5-2.9-7.4-4.3c-1.5,1.7-3,3.4-4.5,5.2C258.6,381,261,382.4,263.5,383.8z M321,362
			c-3,1.8-6,3.5-8.9,5.2c0.1,0.1,0.1,0.2,0.2,0.3c0.4-0.2,0.8-0.3,1.1-0.5c2.5-1.4,5-2.9,7.5-4.3c0.3-0.2,0.9-0.3,1.2-0.1
			c1.6,0.9,3.2,1.8,4.9,2.8c-3.1,1.8-6,3.5-8.9,5.2c0,0.1,0.1,0.2,0.1,0.3c0.4-0.2,0.8-0.3,1.1-0.5c2.5-1.4,5-2.9,7.5-4.3
			c0.3-0.2,0.8-0.4,1.1-0.2c1.7,0.9,3.3,1.9,5.1,2.9c-3.1,1.8-6,3.5-8.9,5.2c0.1,0.1,0.1,0.2,0.2,0.3c0.3-0.1,0.7-0.2,1-0.4
			c2.6-1.5,5.1-3,7.7-4.4c0.2-0.1,0.6-0.3,0.8-0.2c1.7,0.9,3.4,1.9,5.2,3c-3.1,1.8-6,3.5-8.9,5.2c0.1,0.1,0.2,0.3,0.2,0.4
			c3.2-1.8,6.3-3.7,9.5-5.5c-0.2-0.2-0.3-0.3-0.4-0.4c-7.7-4.4-15.3-8.9-23-13.2c-0.3-0.2-1-0.1-1.4,0.1c-2.7,1.5-5.3,3-8,4.6
			c-0.2,0.1-0.5,0.3-0.7,0.5c0.1,0.1,0.1,0.2,0.2,0.3c0.3-0.2,0.7-0.3,1-0.5c2.5-1.4,5-2.9,7.5-4.3c0.4-0.2,1-0.3,1.3-0.2
			C317.7,360.1,319.3,361.1,321,362z M291.9,371.7c0.1,0.1,0.1,0.2,0.2,0.3c0.4-0.2,0.9-0.5,1.3-0.7c2.4-1.4,4.8-2.8,7.3-4.2
			c0.3-0.2,0.8-0.3,1.1-0.2c1.7,0.9,3.3,1.9,5,2.9c-3,1.8-6,3.5-8.9,5.2c0.1,0.1,0.1,0.2,0.2,0.4c0.3-0.2,0.7-0.3,1-0.5
			c2.5-1.4,5-2.9,7.5-4.3c0.4-0.2,1-0.2,1.4-0.1c1.6,0.8,3.1,1.8,4.8,2.7c-3,1.8-6,3.5-8.9,5.2c0,0.1,0.1,0.2,0.1,0.3
			c0.3-0.1,0.7-0.2,1-0.4c2.5-1.4,5-2.9,7.6-4.3c0.3-0.2,0.8-0.3,1.1-0.2c1.7,0.9,3.3,1.9,5,2.9c-3.1,1.8-6,3.5-8.9,5.2
			c0.1,0.1,0.1,0.2,0.2,0.3c0.4-0.2,0.8-0.4,1.2-0.6c2.5-1.4,4.9-2.8,7.4-4.2c0.3-0.2,0.8-0.3,1-0.2c1.7,0.9,3.3,1.9,5,2.9
			c-3.1,1.8-6,3.5-8.9,5.2c0.1,0.1,0.2,0.3,0.2,0.4c3.2-1.8,6.3-3.7,9.5-5.5c-0.2-0.2-0.2-0.3-0.2-0.3c-7.7-4.5-15.5-9-23.2-13.4
			c-0.3-0.2-0.9-0.1-1.3,0.1c-2.7,1.5-5.3,3-8,4.6C292.4,371.4,292.2,371.6,291.9,371.7z"/>
		<path d="M343.1,367.8c0.5-0.6,0.8-1.2,1.3-1.5c0.2-0.1,0.8,0.2,1.2,0.4c1,0.6,2,1.2,3.1,1.8c0.9,0.5,0.8,1.2,0.4,1.8
			c-0.4,0.6-1,0.9-1.7,0.4c-1.1-0.7-2.2-1.3-3.3-1.9C343.7,368.6,343.5,368.3,343.1,367.8z"/>
		<path d="M364,379.9c0.4-0.6,0.7-1.1,1.2-1.4c0.2-0.2,0.8,0.1,1.2,0.3c1,0.6,2,1.3,3.1,1.8c0.8,0.5,0.9,1.2,0.5,1.8
			c-0.4,0.6-1,0.8-1.8,0.4c-1.1-0.7-2.2-1.3-3.3-1.9C364.6,380.7,364.4,380.3,364,379.9z"/>
		<path d="M336.4,364c0.4-0.6,0.7-1.1,1.2-1.4c0.2-0.1,0.8,0.2,1.2,0.4c1,0.5,2,1.2,3,1.7c0.9,0.5,1.1,1.2,0.6,1.9
			c-0.4,0.6-1.1,0.8-1.8,0.3c-1-0.7-2.1-1.2-3.2-1.9C337,364.8,336.8,364.4,336.4,364z"/>
		<path d="M376.8,385.2c-0.1,1.4-1,1.9-1.9,1.4c-1.1-0.6-2.2-1.3-3.3-1.9c-1-0.5-0.8-1.3-0.4-1.9c0.4-0.5,0.9-1,1.8-0.3
			c1,0.8,2.2,1.3,3.2,2C376.5,384.7,376.7,385.1,376.8,385.2z"/>
		<path d="M247.7,399c-0.1,0.9,0,1.7-0.2,2.3c-0.1,0.3-0.6,0.6-0.9,0.6c-0.3,0-0.9,0-0.6-0.8c0.2-0.7-0.2-1.6-0.2-2.3
			c0-0.4,0.1-0.9,0.3-1.2c0.1-0.2,0.5-0.6,0.6-0.6c0.3,0.1,0.6,0.4,0.7,0.7C247.6,398.1,247.6,398.7,247.7,399z"/>
		<path d="M277.1,432c-0.1-0.6-0.3-1.1-0.2-1.7c0-0.8,0.1-1.7,0.4-2.4c0.3-0.7,1.1-0.7,1.2,0c0.2,1.4,0.1,2.8,0,4.2
			c0,0.1-0.9,0.2-1.4,0.4C277.1,432.3,277.1,432.2,277.1,432z"/>
		<path d="M307,430c-0.1,0.9-0.1,1.7-0.3,2.4c-0.1,0.2-0.5,0.5-0.8,0.5c-0.2,0-0.7-0.2-0.7-0.4c-0.1-1.1-0.2-2.1-0.1-3.2
			c0.1-0.5,0.6-0.9,0.9-1.4c0.3,0.4,0.7,0.9,0.9,1.3C307,429.5,307,429.9,307,430z"/>
		<path d="M263.6,424.4c0-1-0.1-1.9-0.1-2.7c0-0.8-0.1-1.8,1-2c0.2,0,0.8,1.2,0.9,1.9c0.1,0.8,0,1.7-0.2,2.5
			C264.9,425,264.2,424.8,263.6,424.4z"/>
		<path d="M235.8,392.7c0-0.8-0.1-1.2-0.1-1.5c0-1,0.1-2,0.2-2.9c0-0.2,0.4-0.5,0.7-0.6c0.2,0,0.6,0.3,0.6,0.5
			c0.1,1.4,0.1,2.8,0,4.2C237.2,392.5,236.3,392.6,235.8,392.7z"/>
		<path d="M349.2,371.9c4.8,2.8,9.7,5.6,14.5,8.4c-0.1,0.1-0.1,0.2-0.2,0.3c-4.9-2.8-9.7-5.6-14.6-8.4
			C349.1,372.1,349.2,372,349.2,371.9z"/>
		<path d="M272.8,425.8c1.5-1.3,2.1,0.2,3,0.4C274.6,427.5,274,425.9,272.8,425.8z"/>
		<path fill="#FFFFFF" d="M267.9,386.4c1.4-1.6,2.7-3.1,4-4.6c0.2-0.2,0.8-0.4,1-0.3c2.3,1.3,4.6,2.6,6.9,3.9
			c-1.5,1.8-3,3.4-4.5,5.2C272.9,389.3,270.5,387.9,267.9,386.4z"/>
		<path fill="#FFFFFF" d="M263.5,383.8c-2.5-1.5-4.9-2.8-7.4-4.3c1.5-1.8,3-3.5,4.5-5.2c2.5,1.4,4.9,2.8,7.4,4.3
			C266.5,380.4,265.1,382.1,263.5,383.8z"/>
		<path fill="#FFFFFF" d="M321,362c-1.7-1-3.3-1.9-4.9-2.8c-0.3-0.2-0.9,0-1.3,0.2c-2.5,1.4-5,2.9-7.5,4.3c-0.3,0.2-0.7,0.3-1,0.5
			c-0.1-0.1-0.1-0.2-0.2-0.3c0.2-0.2,0.4-0.4,0.7-0.5c2.7-1.5,5.3-3.1,8-4.6c0.4-0.2,1-0.3,1.4-0.1c7.7,4.4,15.4,8.8,23,13.2
			c0.1,0.1,0.2,0.2,0.4,0.4c-3.2,1.9-6.4,3.7-9.5,5.5c-0.1-0.1-0.2-0.3-0.2-0.4c2.9-1.7,5.8-3.4,8.9-5.2c-1.8-1-3.5-2-5.2-3
			c-0.2-0.1-0.6,0.1-0.8,0.2c-2.6,1.5-5.1,3-7.7,4.4c-0.3,0.2-0.6,0.3-1,0.4c-0.1-0.1-0.1-0.2-0.2-0.3c2.9-1.7,5.8-3.4,8.9-5.2
			c-1.8-1-3.4-2-5.1-2.9c-0.2-0.1-0.7,0.1-1.1,0.2c-2.5,1.4-5,2.9-7.5,4.3c-0.3,0.2-0.7,0.3-1.1,0.5c0-0.1-0.1-0.2-0.1-0.3
			c2.9-1.7,5.9-3.4,8.9-5.2c-1.7-1-3.3-1.9-4.9-2.8c-0.3-0.2-0.8,0-1.2,0.1c-2.5,1.4-5,2.9-7.5,4.3c-0.3,0.2-0.7,0.3-1.1,0.5
			c-0.1-0.1-0.1-0.2-0.2-0.3C315,365.5,318,363.8,321,362z"/>
		<path fill="#FFFFFF" d="M291.9,371.7c0.3-0.2,0.5-0.4,0.8-0.5c2.7-1.5,5.3-3.1,8-4.6c0.3-0.2,0.9-0.2,1.3-0.1
			c7.7,4.4,15.5,8.9,23.2,13.4c0,0,0,0.1,0.2,0.3c-3.2,1.8-6.4,3.7-9.5,5.5c-0.1-0.1-0.2-0.3-0.2-0.4c2.9-1.7,5.8-3.4,8.9-5.2
			c-1.7-1-3.4-2-5-2.9c-0.2-0.1-0.7,0-1,0.2c-2.5,1.4-4.9,2.8-7.4,4.2c-0.4,0.2-0.8,0.4-1.2,0.6c-0.1-0.1-0.1-0.2-0.2-0.3
			c2.9-1.7,5.8-3.4,8.9-5.2c-1.7-1-3.4-2-5-2.9c-0.3-0.1-0.8,0-1.1,0.2c-2.5,1.4-5,2.9-7.6,4.3c-0.3,0.2-0.7,0.3-1,0.4
			c0-0.1-0.1-0.2-0.1-0.3c2.9-1.7,5.9-3.4,8.9-5.2c-1.6-0.9-3.2-1.9-4.8-2.7c-0.4-0.2-1-0.1-1.4,0.1c-2.5,1.4-5,2.9-7.5,4.3
			c-0.3,0.2-0.7,0.3-1,0.5c-0.1-0.1-0.1-0.2-0.2-0.4c2.9-1.7,5.9-3.4,8.9-5.2c-1.7-1-3.3-2-5-2.9c-0.2-0.1-0.7,0-1.1,0.2
			c-2.4,1.4-4.8,2.8-7.3,4.2c-0.4,0.2-0.8,0.5-1.3,0.7C292,372,292,371.9,291.9,371.7z"/>
	</g>
</g>
</svg>
